<svg xmlns="http://www.w3.org/2000/svg"  viewBox="0 0 100 100" width="100px" height="100px" baseProfile="basic"><path d="M86,49.02v-6.14c0-2.54-0.99-4.93-2.78-6.72c-1.8-1.8-4.18-2.78-6.72-2.78c-3.72,0-6.94,2.14-8.5,5.25v-5.02 c0-7.5-3.04-14.84-8.34-20.15L56.1,9.9C54.87,8.68,53.24,8,51.5,8s-3.37,0.68-4.6,1.9l-3.56,3.56C38.04,18.77,35,23.11,35,30.61 v6.43c-0.24-0.3-0.5-0.6-0.78-0.88c-1.8-1.8-4.18-2.78-6.72-2.78c-5.24,0-9.5,4.26-9.5,9.5v6.14c-1.8,1.16-3,3.18-3,5.48v20 c0,2.84,4.29,2.63,7,3.5l7,5v6.5c0,3.58,2.92,6.5,6.5,6.5h33c3.58,0,6.5-2.92,6.5-6.5v-5.7l9.02-2.96l0.46-0.15 C87.19,79.82,89,77.34,89,74.5v-20C89,52.2,87.8,50.18,86,49.02z M82.46,76.09L70,80.18v9.32c0,0.83-0.67,1.5-1.5,1.5 c0,0-12.5-0.67-12.5-1.5v-4.73l-3.53,1.16C52.31,85.98,52.16,86,52,86s-0.31-0.02-0.47-0.07L48,84.77v4.73 c0,0.83-12.5,1.5-12.5,1.5c-0.83,0-1.5-0.67-1.5-1.5v-9.32l-12.96-4.25C20.42,75.73,20,75.15,20,74.5v-20c0-0.83,0.67-1.5,1.5-1.5 H23V42.88c0-2.49,2.02-4.5,4.5-4.5c1.2,0,2.33,0.46,3.18,1.31c0.85,0.85,1.32,1.98,1.32,3.19V53h1.5c0.83,0,1.5,0.67,1.5,1.5V58h3 v-4.5c0-0.83,0.67-1.5,1.5-1.5H40V30.61c0-6.18,2.51-9.24,6.88-13.61l3.56-3.56C50.73,13.15,51.12,13,51.5,13s0.77,0.15,1.06,0.44 L56.12,17C60.49,21.37,63,24.43,63,30.61V52h0.5c0.83,0,1.5,0.67,1.5,1.5V58h4v-3.5c0-0.83,0.67-1.5,1.5-1.5H72V42.88 c0-2.49,2.02-4.5,4.5-4.5c1.2,0,2.33,0.46,3.18,1.31c0.85,0.85,1.32,1.98,1.32,3.19V53h1.5c0.83,0,1.5,0.67,1.5,1.5v20 c0,0.65-0.42,1.23-1.04,1.43L82.46,76.09z" opacity=".35"/><path fill="#9aa2e6" d="M80,54v18.66l-13.5,4.43V87.5h-11v-6.8L50,82.5l-5.5-1.8v6.8h-11V77.09l-4.55-1.49L20,72.66V54 h11.5v1.5L31,57h6.5v-5.5h2V31.61c0-5.83,2.32-11.43,6.44-15.55l3.56-3.56l3.56,3.56c4.12,4.12,6.44,9.72,6.44,15.55V51.5h2V57H68 l0.17-0.5h0.33v-1L69,54H80z"/><path fill="#f9b84f" d="M45,88c0.142,0.142-0.515-3.722,0-6c0.389-1.721,2-2,2-2l-15-5l1,13H45z"/><path fill="#f9b84f" d="M55,88c-0.142,0.142,0.515-3.722,0-6c-0.389-1.721-2-2-2-2l15-5l-1,13H55z"/><rect width="5" height="6" x="23" y="37.375" fill="#ffc571"/><rect width="5" height="6" x="72" y="37.375" fill="#ffc571"/><rect width="6" height="10.625" x="22.5" y="43.375" fill="#707cc0"/><rect width="6" height="10.625" x="71.5" y="43.375" fill="#707cc0"/><polygon fill="#9aa2e6" points="31.5,54 32,54 31.5,55.5"/><polygon fill="#9aa2e6" points="68.5,56.5 68.17,56.5 68.5,55.5"/><path fill="#40396e" d="M81.5,48.63v-7.75c0-1.87-0.73-3.63-2.05-4.95c-1.32-1.33-3.08-2.05-4.95-2.05c-3.86,0-7,3.14-7,7 v7.75c-0.91,0.23-1.7,0.78-2.23,1.52c-0.33-0.9-0.96-1.64-1.77-2.11V31.61c0-6.84-2.77-13.54-7.61-18.38l-3.56-3.56 C51.57,8.92,50.57,8.5,49.5,8.5s-2.07,0.42-2.83,1.17l-3.56,3.56c-4.84,4.84-7.61,11.54-7.61,18.38v16.43 c-0.59,0.34-1.08,0.82-1.43,1.4c-0.45-0.38-0.98-0.66-1.57-0.81v-7.75c0-1.87-0.73-3.63-2.05-4.95c-1.32-1.33-3.08-2.05-4.95-2.05 c-3.86,0-7,3.14-7,7v7.75c-1.72,0.44-3,2.01-3,3.87v20c0,1.75,1.12,3.28,2.76,3.8l11.24,3.69v7.51c0,2.21,1.79,4,4,4h11 c2.21,0,4-1.79,4-4v-1.28l0.25,0.08c0.41,0.13,0.83,0.2,1.25,0.2s0.84-0.07,1.24-0.2l0.26-0.08v1.28c0,2.21,15,4,15,4 c2.21,0,4-1.79,4-4v-7.51l10.72-3.52l0.5-0.16c1.66-0.53,2.78-2.06,2.78-3.81v-20C84.5,50.64,83.22,49.07,81.5,48.63z M65,77.09 V86h-8v-5.3c0-0.48-0.23-0.93-0.62-1.21c-0.26-0.19-0.57-0.29-0.88-0.29c-0.16,0-0.31,0.02-0.47,0.07L50,80.92l-5.03-1.65 c-0.16-0.05-0.31-0.07-0.47-0.07c-0.31,0-0.62,0.1-0.88,0.29C43.23,79.77,43,80.22,43,80.7V86h-8v-8.91 c0-0.65-0.42-1.22-1.03-1.42L21,71.41V54h1.5c0.83,0,1.5-0.67,1.5-1.5V40.88c0-0.83,0.67-1.5,1.5-1.5c0.4,0,0.78,0.15,1.06,0.44 C26.84,40.1,27,40.48,27,40.88V52.5c0,0.83,0.67,1.5,1.5,1.5H30v3.5c0,0.83,0.67,1.5,1.5,1.5h6c0.83,0,1.5-0.67,1.5-1.5V53h0.5 c0.83,0,1.5-0.67,1.5-1.5V31.61c0-5.4,2.19-10.68,6-14.49l2.5-2.5l2.5,2.5c3.81,3.81,6,9.09,6,14.49V51.5c0,0.83,0.67,1.5,1.5,1.5 H60v4.5c0,0.83,0.67,1.5,1.5,1.5h7c0.83,0,1.5-0.67,1.5-1.5V54h1.5c0.83,0,1.5-0.67,1.5-1.5V40.88c0-0.83,0.67-1.5,1.5-1.5 c0.4,0,0.78,0.15,1.06,0.44C75.84,40.1,76,40.48,76,40.88V52.5c0,0.83,0.67,1.5,1.5,1.5H79v17.41l-12.97,4.26 C65.42,75.87,65,76.44,65,77.09z"/><path fill="#f2f2f2" d="M84,47.02v-6.14c0-2.54-0.99-4.93-2.78-6.72c-1.8-1.8-4.18-2.78-6.72-2.78 c-3.72,0-6.94,2.14-8.5,5.25v-5.02c0-7.5-3.04-14.84-8.34-20.15L54.1,7.9C52.87,6.68,51.24,6,49.5,6s-3.37,0.68-4.6,1.9 l-3.56,3.56C36.04,16.77,33,24.11,33,31.61v3.43c-0.24-0.3-0.5-0.6-0.78-0.88c-1.8-1.8-4.18-2.78-6.72-2.78 c-5.24,0-9.5,4.26-9.5,9.5v6.14c-1.8,1.16-3,3.18-3,5.48v20c0,2.84,1.81,5.32,4.52,6.19L27,81.8v5.7c0,3.58,2.92,6.5,6.5,6.5h11 c2.31,0,22,0,22,0c3.58,0,6.5-2.92,6.5-6.5v-5.7l9.02-2.96l0.46-0.15C85.19,77.82,87,75.34,87,72.5v-20 C87,50.2,85.8,48.18,84,47.02z M80.46,74.09L68,78.18v9.32c0,0.83-0.67,1.5-1.5,1.5h-11c-0.83,0-1.5-0.67-1.5-1.5v-4.73 l-3.53,1.16C50.31,83.98,50.16,84,50,84s-0.31-0.02-0.47-0.07L46,82.77v4.73c0,0.83-0.67,1.5-1.5,1.5h-11 c-0.83,0-1.5-0.67-1.5-1.5v-9.32l-12.96-4.25C18.42,73.73,18,73.15,18,72.5v-20c0-0.83,0.67-1.5,1.5-1.5H21V40.88 c0-2.49,2.02-4.5,4.5-4.5c1.2,0,2.33,0.46,3.18,1.31c0.85,0.85,1.32,1.98,1.32,3.19V51h1.5c0.83,0,1.5,0.67,1.5,1.5V56h3v-4.5 c0-0.83,0.67-1.5,1.5-1.5H38V31.61c0-6.18,2.51-12.24,6.88-16.61l3.56-3.56C48.73,11.15,49.12,11,49.5,11s0.77,0.15,1.06,0.44 L54.12,15C58.49,19.37,61,25.43,61,31.61V50h0.5c0.83,0,1.5,0.67,1.5,1.5V56h4v-3.5c0-0.83,0.67-1.5,1.5-1.5H70V40.88 c0-2.49,2.02-4.5,4.5-4.5c1.2,0,2.33,0.46,3.18,1.31c0.85,0.85,1.32,1.98,1.32,3.19V51h1.5c0.83,0,1.5,0.67,1.5,1.5v20 c0,0.65-0.42,1.23-1.04,1.43L80.46,74.09z"/><path fill="#40396e" d="M61.5,50H50.88V34.625c0-0.83-0.68-1.5-1.5-1.5c-0.83,0-1.5,0.67-1.5,1.5V50H37.5 c-0.83,0-1.5,0.67-1.5,1.5v16.01c0,0.65,0.42,1.23,1.04,1.43l12.5,3.99C49.69,72.98,49.85,73,50,73c0.17,0,0.33-0.03,0.49-0.08 l11.5-3.99C62.6,68.72,63,68.15,63,67.51V51.5C63,50.67,62.33,50,61.5,50z M60,66.44l-10.02,3.48L39,66.42V53h21V66.44z" opacity=".35"/><polygon fill="#f2f2f2" points="76,36 63,38 63,31.5 76,31.5"/><rect width="13" height="4.5" x="24" y="31.5" fill="#f2f2f2"/></svg>