<svg xmlns="http://www.w3.org/2000/svg"  viewBox="0 0 100 100" width="100px" height="100px"><path d="M20.5,93c-5.2,0-9.5-4.3-9.5-9.5v-63c0-5.2,4.3-9.5,9.5-9.5h63c5.2,0,9.5,4.3,9.5,9.5v63c0,5.2-4.3,9.5-9.5,9.5	H20.5z" opacity=".35"/><path fill="#f2f2f2" d="M18.5,91C13.3,91,9,86.7,9,81.5v-63C9,13.3,13.3,9,18.5,9h63c5.2,0,9.5,4.3,9.5,9.5v63c0,5.2-4.3,9.5-9.5,9.5	H18.5z"/><path fill="#27b0c1" stroke="#40396e" stroke-miterlimit="10" stroke-width="3" d="M81.5,84.5h-63c-1.7,0-3-1.3-3-3v-63c0-1.7,1.3-3,3-3h63c1.7,0,3,1.3,3,3v63C84.5,83.2,83.2,84.5,81.5,84.5z"/><path fill="#fff" d="M33.5,74.2c-3.2,0-5.6-1.1-7.3-3.3c-1.7-2.2-2.6-5.2-2.6-9.2c0-4.2,1-7.4,2.9-9.7s4.6-3.4,8.1-3.4 c1,0,2,0.1,3.1,0.4c1,0.3,2,0.7,2.9,1.3c0.6,0.3,0.9,0.8,1.1,1.3c0.1,0.6,0.1,1.1-0.1,1.6c-0.2,0.5-0.6,0.9-1.1,1.1 c-0.5,0.2-1.1,0.2-1.8-0.1c-0.7-0.4-1.4-0.7-2.1-0.8c-0.7-0.2-1.3-0.2-2-0.2c-3.8,0-5.8,2.5-5.8,7.6v0.7c0.5-1.2,1.3-2.1,2.3-2.7 c1-0.6,2.2-1,3.6-1c1.4,0,2.7,0.3,3.7,1c1.1,0.7,2,1.6,2.6,2.8s0.9,2.6,0.9,4.1c0,1.6-0.4,3.1-1.1,4.4c-0.7,1.3-1.7,2.3-3,3 C36.6,73.9,35.1,74.2,33.5,74.2z M33.2,70c1.1,0,2-0.4,2.6-1.1c0.7-0.7,1-1.7,1-2.9c0-1.2-0.3-2.1-1-2.9c-0.7-0.8-1.5-1.1-2.6-1.1 c-1.1,0-2,0.4-2.7,1.1c-0.7,0.8-1,1.7-1,2.9c0,1.2,0.3,2.2,1,2.9C31.2,69.6,32.1,70,33.2,70z"/><path fill="#fff" d="M59.3,74.1c-0.9,0-1.5-0.2-2-0.7c-0.5-0.5-0.7-1.1-0.7-2v-2h-7.9c-0.9,0-1.6-0.2-2.1-0.6 c-0.5-0.4-0.8-1-0.8-1.8c0-0.5,0.1-0.9,0.3-1.4c0.2-0.5,0.6-1.1,1.1-1.8l9.1-13.3c0.4-0.6,0.8-1.1,1.3-1.4c0.5-0.3,1-0.4,1.7-0.4 c0.8,0,1.4,0.2,1.8,0.7c0.4,0.5,0.7,1.1,0.7,2.1v13.6h1.3c1.6,0,2.4,0.7,2.4,2.1c0,1.4-0.8,2.1-2.4,2.1h-1.3v2c0,0.9-0.2,1.6-0.7,2 C60.8,73.9,60.1,74.1,59.3,74.1z M56.6,65.1v-8.2L51,65.1H56.6z"/><g><path fill="#fff" d="M67.3,40.5c-0.5,0-0.8-0.1-0.9-0.4c-0.2-0.3-0.2-0.6-0.1-1.1l0.6-2.9h-0.3c-0.9,0-1.3-0.4-1.3-1.2 c0-0.8,0.4-1.2,1.3-1.2h0.8l1-4.9h-1.2c-0.9,0-1.4-0.4-1.4-1.2c0-0.8,0.5-1.1,1.4-1.1h1.6l0.6-3c0.2-0.8,0.6-1.2,1.4-1.2 c0.4,0,0.7,0.1,0.9,0.4c0.2,0.3,0.2,0.6,0.1,1.1l-0.5,2.7h2.7l0.6-3c0.2-0.8,0.7-1.2,1.5-1.2c0.4,0,0.7,0.1,0.9,0.4 c0.2,0.3,0.2,0.6,0.2,1.1l-0.5,2.7h0.3c0.9,0,1.3,0.4,1.3,1.1c0,0.8-0.4,1.2-1.3,1.2H76l-1,4.9h1.2c0.9,0,1.4,0.4,1.4,1.2 c0,0.8-0.5,1.2-1.4,1.2h-1.6l-0.7,3.2c-0.2,0.8-0.6,1.2-1.4,1.2c-0.4,0-0.7-0.1-0.9-0.4c-0.2-0.3-0.2-0.6-0.1-1.1l0.6-2.9h-2.7 l-0.6,3.2C68.6,40.1,68.1,40.5,67.3,40.5z M69.8,33.8h2.7l1-4.9h-2.7L69.8,33.8z"/></g></svg>