<svg xmlns="http://www.w3.org/2000/svg"  viewBox="0 0 100 100" width="100px" height="100px"><path d="M77.02,100c-4.955,0-9.785-1.8-13.562-5H26.5C20.71,95,16,90.29,16,84.5 v-65C16,13.71,20.71,9,26.5,9h51C83.29,9,88,13.71,88,19.5v41.611c6.175,3.765,10.011,10.469,10.011,17.897 C98.011,90.583,88.594,100,77.02,100z" opacity=".35"/><path fill="#f2f2f2" d="M75.02,98c-4.955,0-9.785-1.8-13.562-5H24.5C18.71,93,14,88.29,14,82.5v-65C14,11.71,18.71,7,24.5,7 h51C81.29,7,86,11.71,86,17.5v41.611c6.175,3.765,10.011,10.469,10.011,17.897C96.011,88.583,86.594,98,75.02,98z"/><path fill="#2b59a1" d="M75.5,13.5h-51c-2.209,0-4,1.791-4,4v65c0,2.209,1.791,4,4,4h51c2.209,0,4-1.791,4-4v-65 C79.5,15.291,77.709,13.5,75.5,13.5z"/><path fill="#70bfff" d="M79.5,40h-59V17.5c0-2.209,1.791-4,4-4h51c2.209,0,4,1.791,4,4V40z"/><path fill="#fff" d="M73,34H28V21h45V34z"/><rect width="5" height="5" x="64" y="25" fill="#40396e"/><path fill="#d9eeff" d="M36,50h-8v-5h8V50z M36,55h-8v5h8V55z M36,65h-8v5h8V65z M36,75h-8v5h8V75z M48,45h-8v5h8V45z M48,55h-8v5h8V55z M48,65h-8v5h8V65z M48,75h-8v5h8V75z M60,45h-8v5h8V45z M60,55h-8v5h8V55z M60,65h-8v5h8V65z M60,75h-8v5h8V75z"/><rect width="8" height="5" x="65" y="45" fill="#ff5252"/><path fill="#70bfff" d="M73,60h-8v-5h8V60z M73,65h-8v5h8V65z M73,75h-8v5h8V75z"/><circle cx="75.005" cy="76.995" r="12.995" fill="#96c362"/><path fill="#fff" d="M75.57,86.737c-0.352,0-0.641-0.118-0.871-0.354c-0.23-0.236-0.345-0.524-0.345-0.862v-1.196 c-0.783-0.054-1.476-0.178-2.077-0.375c-0.601-0.196-1.111-0.401-1.529-0.618c-0.379-0.189-0.615-0.456-0.709-0.8 c-0.095-0.345-0.078-0.676,0.05-0.994c0.128-0.317,0.344-0.547,0.648-0.688c0.305-0.142,0.666-0.111,1.085,0.091 c0.324,0.176,0.776,0.354,1.358,0.537c0.581,0.182,1.289,0.273,2.128,0.273c0.932,0,1.593-0.148,1.985-0.445 c0.391-0.297,0.588-0.669,0.588-1.115c0-0.364-0.136-0.668-0.406-0.912c-0.27-0.243-0.757-0.439-1.458-0.587l-2.228-0.487 c-2.459-0.539-3.688-1.85-3.688-3.93c0-1.135,0.385-2.094,1.155-2.877c0.77-0.783,1.803-1.276,3.1-1.48v-1.276 c0-0.338,0.114-0.625,0.345-0.861c0.23-0.236,0.519-0.354,0.871-0.354c0.338,0,0.622,0.118,0.851,0.354 c0.229,0.236,0.345,0.523,0.345,0.861v1.215c0.5,0.068,1.016,0.189,1.55,0.365c0.534,0.175,1.002,0.405,1.408,0.688 c0.324,0.203,0.523,0.463,0.597,0.78c0.074,0.317,0.044,0.618-0.091,0.901c-0.136,0.284-0.354,0.484-0.658,0.597 c-0.304,0.115-0.672,0.065-1.104-0.152c-0.365-0.175-0.764-0.324-1.196-0.445c-0.433-0.121-0.966-0.182-1.601-0.182 c-0.783,0-1.397,0.162-1.844,0.487c-0.445,0.324-0.669,0.743-0.669,1.256c0,0.365,0.131,0.666,0.395,0.902s0.726,0.429,1.388,0.578 l2.249,0.486c1.283,0.284,2.232,0.747,2.847,1.389c0.615,0.641,0.922,1.462,0.922,2.462c0,1.149-0.388,2.095-1.165,2.837 c-0.777,0.743-1.787,1.223-3.029,1.438v1.276c0,0.338-0.115,0.625-0.345,0.862C76.192,86.619,75.908,86.737,75.57,86.737z"/><path fill="none" stroke="#40396e" stroke-linecap="round" stroke-linejoin="round" stroke-miterlimit="10" stroke-width="3" d="M79.485,63.219c5.818,1.883,10.026,7.345,10.026,13.79c0,8.003-6.488,14.491-14.491,14.491c-4.38,0-8.306-1.943-10.963-5.015"/><path fill="#40396e" d="M64,85H24.5c-1.379,0-2.5-1.122-2.5-2.5v-65c0-1.378,1.121-2.5,2.5-2.5h51 c1.379,0,2.5,1.122,2.5,2.5V63h3V17.5c0-3.033-2.468-5.5-5.5-5.5h-51c-3.032,0-5.5,2.467-5.5,5.5v65c0,3.033,2.468,5.5,5.5,5.5H64 V85z"/></svg>