<svg xmlns="http://www.w3.org/2000/svg"  viewBox="0 0 100 100" width="100px" height="100px"><path d="M70.109,95.062c-0.686,0-1.363-0.107-2.014-0.32L14.486,77.271C11.803,76.396,10,73.912,10,71.09V15.5 c0-3.584,2.916-6.5,6.5-6.5h56c3.584,0,6.5,2.916,6.5,6.5v10.339l10.183,3.267c1.652,0.53,2.999,1.671,3.793,3.213 c0.796,1.547,0.941,3.309,0.41,4.963L76.298,90.548c-0.521,1.631-1.699,3.019-3.229,3.801 C72.157,94.816,71.133,95.062,70.109,95.062z" opacity=".35"/><path fill="#f2f2f2" d="M68.109,93.062c-0.686,0-1.363-0.107-2.014-0.32L12.486,75.271C9.803,74.396,8,71.912,8,69.09V13.5 C8,9.916,10.916,7,14.5,7h56c3.584,0,6.5,2.916,6.5,6.5v10.339l10.183,3.267c1.652,0.53,2.999,1.671,3.793,3.213 c0.796,1.547,0.941,3.309,0.41,4.963L74.298,88.548c-0.521,1.631-1.699,3.019-3.229,3.801 C70.157,92.816,69.133,93.062,68.109,93.062z"/><path fill="#d9eeff" d="M83.419,34.33L73.36,31.07l-6.786-3.773L33,17.992L16.662,68.41L67.08,84.749L83.419,34.33z"/><rect width="44.973" height="46" x="27.074" y="28.229" fill="#70bfff" transform="rotate(-72.043 49.562 51.229)"/><path fill="#40396e" d="M83.419,34.33L73.36,31.07l-6.786-3.773L33,17.992L16.662,68.41L67.08,84.749L83.419,34.33z" opacity=".35"/><path fill="#d9eeff" d="M69,15H16v53h53V15z"/><path fill="#40396e" d="M68.109,88.062c-0.156,0-0.313-0.024-0.465-0.074L14.035,70.517C13.418,70.315,13,69.74,13,69.09 V13.5c0-0.829,0.671-1.5,1.5-1.5h56c0.829,0,1.5,0.671,1.5,1.5v13.986l13.655,4.381c0.379,0.122,0.694,0.389,0.876,0.742 c0.182,0.354,0.216,0.766,0.094,1.144L69.537,87.021c-0.122,0.38-0.39,0.696-0.745,0.877 C68.578,88.007,68.344,88.062,68.109,88.062z M16,68.001l51.141,16.668l16.169-50.404l-13.269-4.257 C69.421,29.809,69,29.232,69,28.58V15H16V68.001z"/><rect width="45" height="45" x="20" y="19" fill="#70bfff"/><circle cx="46.52" cy="26.372" r="3.52" fill="#f9b84f"/><path fill="#739f4d" d="M36.83,49.723l14.984-15.39c0.396-0.407,1.048-0.415,1.454-0.019L65,45.766v18.043L36.83,49.723z"/><g><path fill="#96c362" d="M65,62.526L36.403,31.524c-0.61-0.662-1.645-0.694-2.295-0.072L20,44.941V64h45V62.526z"/></g></svg>