<svg xmlns="http://www.w3.org/2000/svg"  viewBox="0 0 100 100" width="100px" height="100px"><path d="M49.005,96.491c-1.505,0-2.982-0.537-4.141-1.491H22.5c-3.584,0-6.5-2.916-6.5-6.5v-73	c0-3.584,2.916-6.5,6.5-6.5h22.369C45.994,8.069,47.435,7.509,49,7.509S52.007,8.069,53.132,9H63.5c1.78,0,3.502,0.742,4.724,2.035	L86.219,30.03C87.367,31.242,88,32.83,88,34.5v54c0,3.584-2.916,6.5-6.5,6.5H53.152C52.019,95.953,50.553,96.491,49.005,96.491z" opacity=".35"/><path fill="#f2f2f2" d="M47.005,94.491c-1.505,0-2.982-0.537-4.141-1.491H20.5c-3.584,0-6.5-2.916-6.5-6.5v-73	C14,9.916,16.916,7,20.5,7h22.369C43.994,6.069,45.435,5.509,47,5.509S50.007,6.069,51.132,7H61.5c1.78,0,3.502,0.742,4.724,2.035	L84.219,28.03C85.367,29.242,86,30.83,86,32.5v54c0,3.584-2.916,6.5-6.5,6.5H51.152C50.019,93.953,48.553,94.491,47.005,94.491z"/><path fill="#d9eeff" d="M20,87V13h40l20,21v53H20z"/><path fill="#40396e" d="M61,15v16c0,1.105,0.895,2,2,2h16l-1-2.653l-15-15.5L61,15z"/><polygon fill="none" stroke="#40396e" stroke-linejoin="round" stroke-miterlimit="10" stroke-width="3" points="20.5,13.5 61.5,13.5 79.5,32.5 79.5,86.5 20.5,86.5"/><path fill="#70bfff" d="M70.784,48h-16c-0.828,0-1.5-0.672-1.5-1.5l0,0c0-0.828,0.672-1.5,1.5-1.5h16	c0.828,0,1.5,0.672,1.5,1.5l0,0C72.284,47.328,71.612,48,70.784,48z"/><path fill="#70bfff" d="M38.793,57H30.5c-0.828,0-1.5-0.672-1.5-1.5l0,0c0-0.828,0.672-1.5,1.5-1.5h8.293	c0.828,0,1.5,0.672,1.5,1.5l0,0C40.293,56.328,39.621,57,38.793,57z"/><path fill="#70bfff" d="M38.5,48h-8c-0.828,0-1.5-0.672-1.5-1.5l0,0c0-0.828,0.672-1.5,1.5-1.5h8c0.828,0,1.5,0.672,1.5,1.5	l0,0C40,47.328,39.328,48,38.5,48z"/><path fill="#40396e" d="M47,20.487c-0.4,0-0.78-0.16-1.06-0.44c-0.07-0.07-0.13-0.15-0.19-0.23 c-0.05-0.08-0.1-0.17-0.13-0.26c-0.04-0.09-0.07-0.18-0.09-0.28c-0.02-0.09-0.03-0.19-0.03-0.29c0-0.4,0.16-0.78,0.44-1.06 c0.07-0.07,0.14-0.13,0.23-0.19c0.08-0.05,0.17-0.1,0.26-0.13c0.09-0.04,0.18-0.07,0.28-0.09c0.48-0.1,1.01,0.06,1.35,0.41 c0.28,0.28,0.44,0.66,0.44,1.06c0,0.39-0.16,0.78-0.44,1.06S47.4,20.487,47,20.487z"/><path fill="#40396e" d="M45.504,87.991c0-0.39,0.16-0.78,0.44-1.06s0.67-0.44,1.06-0.44c0.4,0,0.78,0.16,1.06,0.44 c0.07,0.07,0.13,0.15,0.19,0.23c0.05,0.08,0.1,0.17,0.13,0.26c0.04,0.09,0.07,0.18,0.09,0.28c0.09,0.49-0.06,1.01-0.41,1.35 c-0.28,0.28-0.66,0.44-1.06,0.44c-0.39,0-0.78-0.16-1.06-0.44C45.664,88.771,45.504,88.391,45.504,87.991z"/><path fill="#40396e" d="M47,27.489c-0.83,0-1.5-0.67-1.5-1.5l0,0c0-0.83,0.67-1.5,1.5-1.5l0,0c0.83,0,1.5,0.67,1.5,1.5l0,0 C48.5,26.818,47.83,27.489,47,27.489z"/><path fill="#40396e" d="M47,34.479c-0.83,0-1.5-0.67-1.5-1.5l0,0c0-0.83,0.67-1.5,1.5-1.5l0,0c0.83,0,1.5,0.67,1.5,1.5l0,0 C48.5,33.809,47.83,34.479,47,34.479z"/><path fill="#40396e" d="M47,13.509c-0.83,0-1.5-0.67-1.5-1.5l0,0c0-0.83,0.67-1.5,1.5-1.5l0,0c0.83,0,1.5,0.67,1.5,1.5l0,0 C48.5,12.838,47.83,13.509,47,13.509z"/><path fill="#40396e" d="M47,41.497c-0.83,0-1.5-0.67-1.5-1.5l0,0c0-0.83,0.67-1.5,1.5-1.5l0,0c0.83,0,1.5,0.67,1.5,1.5l0,0 C48.5,40.827,47.83,41.497,47,41.497z"/><path fill="#40396e" d="M47,48.481c-0.83,0-1.5-0.67-1.5-1.5l0,0c0-0.83,0.67-1.5,1.5-1.5l0,0c0.83,0,1.5,0.67,1.5,1.5l0,0 C48.5,47.811,47.83,48.481,47,48.481z"/><path fill="#40396e" d="M47,54.982c-0.83,0-1.5-0.67-1.5-1.5l0,0c0-0.83,0.67-1.5,1.5-1.5l0,0c0.83,0,1.5,0.67,1.5,1.5l0,0 C48.5,54.312,47.83,54.982,47,54.982z"/><path fill="#40396e" d="M47,61.483c-0.83,0-1.5-0.67-1.5-1.5l0,0c0-0.83,0.67-1.5,1.5-1.5l0,0c0.83,0,1.5,0.67,1.5,1.5l0,0 C48.5,60.813,47.83,61.483,47,61.483z"/><path fill="#40396e" d="M47,68.484c-0.83,0-1.5-0.67-1.5-1.5l0,0c0-0.83,0.67-1.5,1.5-1.5l0,0c0.83,0,1.5,0.67,1.5,1.5l0,0 C48.5,67.814,47.83,68.484,47,68.484z"/><path fill="#40396e" d="M47,75.463c-0.83,0-1.5-0.67-1.5-1.5l0,0c0-0.83,0.67-1.5,1.5-1.5l0,0c0.83,0,1.5,0.67,1.5,1.5l0,0 C48.5,74.793,47.83,75.463,47,75.463z"/><path fill="#40396e" d="M47,82.475c-0.83,0-1.5-0.67-1.5-1.5l0,0c0-0.83,0.67-1.5,1.5-1.5l0,0c0.83,0,1.5,0.67,1.5,1.5l0,0 C48.5,81.805,47.83,82.475,47,82.475z"/><path fill="#70bfff" d="M70.784,57h-16c-0.828,0-1.5-0.672-1.5-1.5l0,0c0-0.828,0.672-1.5,1.5-1.5h16	c0.828,0,1.5,0.672,1.5,1.5l0,0C72.284,56.328,71.612,57,70.784,57z"/><path fill="#70bfff" d="M70.784,66h-16c-0.828,0-1.5-0.672-1.5-1.5l0,0c0-0.828,0.672-1.5,1.5-1.5h16	c0.828,0,1.5,0.672,1.5,1.5l0,0C72.284,65.328,71.612,66,70.784,66z"/><path fill="#70bfff" d="M70.784,75h-16c-0.828,0-1.5-0.672-1.5-1.5l0,0c0-0.828,0.672-1.5,1.5-1.5h16	c0.828,0,1.5,0.672,1.5,1.5l0,0C72.284,74.328,71.612,75,70.784,75z"/></svg>