<svg xmlns="http://www.w3.org/2000/svg"  viewBox="0 0 100 100" width="100px" height="100px" baseProfile="basic"><path d="M17.5,93c-3.5839844,0-6.5-2.9160156-6.5-6.5v-69c0-3.5839844,2.9160156-6.5,6.5-6.5h69c3.5839844,0,6.5,2.9160156,6.5,6.5 v69c0,3.5839844-2.9160156,6.5-6.5,6.5H17.5z" opacity=".35"/><path fill="#F2F2F2" d="M15.5,91C11.9160156,91,9,88.0839844,9,84.5v-69C9,11.9160156,11.9160156,9,15.5,9h69 c3.5839844,0,6.5,2.9160156,6.5,6.5v69c0,3.5839844-2.9160156,6.5-6.5,6.5H15.5z"/><rect width="68" height="68" x="16" y="17" fill="#D9EEFF"/><path fill="#40396E" d="M84.5,14h-23h-23h-23c-0.8286133,0-1.5,0.6713867-1.5,1.5v23v23v23c0,0.8286133,0.6713867,1.5,1.5,1.5h23 h23h23c0.8286133,0,1.5-0.6713867,1.5-1.5v-23v-23v-23C86,14.6713867,85.3286133,14,84.5,14z M17,40h20v20H17V40z M40,40h20v20H40 V40z M63,40h20v20H63V40z M83,37H63V17h20V37z M60,37H40V17h20V37z M17,17h20v20H17V17z M17,63h20v20H17V63z M40,63h20v20H40V63z M83,83H63V63h20V83z" opacity=".35"/><path fill="#40396E" d="M84.5,86h-69c-0.8286133,0-1.5-0.6713867-1.5-1.5v-69c0-0.8286133,0.6713867-1.5,1.5-1.5h69 c0.8286133,0,1.5,0.6713867,1.5,1.5v69C86,85.3286133,85.3286133,86,84.5,86z M17,83h66V17H17V83z"/></svg>