<svg xmlns="http://www.w3.org/2000/svg" viewBox="0 0 24 24" width="24px" height="24px" fill="#4c4948"><path d="M 12 2 C 6.4860328 2 2 6.4860368 2 12 C 2 17.513963 6.4860328 22 12 22 C 17.513967 22 22 17.513963 22 12 C 22 6.4860368 17.513967 2 12 2 z M 12 3.5 C 16.703308 3.5 20.5 7.2966955 20.5 12 C 20.5 16.703304 16.703308 20.5 12 20.5 C 7.2966924 20.5 3.5 16.703304 3.5 12 C 3.5 7.2966955 7.2966924 3.5 12 3.5 z M 12 6 C 10.222414 6 8.7058329 7.1675136 8.1894531 8.7832031 A 0.750075 0.750075 0 1 0 9.6171875 9.2402344 C 9.9388077 8.2339239 10.877586 7.5 12 7.5 C 13.389708 7.5 14.5 8.6102925 14.5 10 C 14.5 11.389708 13.389708 12.5 12 12.5 A 0.750075 0.750075 0 0 0 11.25 13.25 L 11.25 14.25 A 0.750075 0.750075 0 1 0 12.75 14.25 L 12.75 13.847656 C 14.581643 13.483471 16 11.93463 16 10 C 16 7.7997075 14.200292 6 12 6 z M 12 16.5 A 0.75 0.75 0 0 0 12 18 A 0.75 0.75 0 0 0 12 16.5 z"/></svg>