<svg xmlns="http://www.w3.org/2000/svg"  viewBox="0 0 100 100" width="100px" height="100px"><path fill="#1d1d1b" d="M90,32.5v47c0,3.58-2.92,6.5-6.5,6.5H36.04l-3.88,6.01 C30.99,93.84,29,94.96,26.81,95H26.6c-2.08-0.05-4.04-1.08-5.23-2.76l-0.02-0.03l-0.02-0.03l-6.19-9.03 c-0.74-1.08-1.13-2.35-1.13-3.66V36.63c0-4.78,3.89-8.66,8.68-8.66h3.27L26,16.49c0-3.58,2.92-6.49,6.5-6.49h36 c1.79,0,3.52,0.75,4.74,2.05l15.01,16.02C89.38,29.28,90,30.85,90,32.5z" opacity=".35"/><path fill="#f2f2f2" d="M88,30.5v47c0,3.58-2.92,6.5-6.5,6.5H34.04l-3.88,6.01C28.99,91.84,27,92.96,24.81,93H24.6 c-2.08-0.05-4.04-1.08-5.23-2.76l-0.02-0.03l-0.02-0.03l-6.19-9.03c-0.74-1.08-1.13-2.35-1.13-3.66V34.63 c0-4.78,3.89-8.66,8.68-8.66h3.27L24,14.49C24,10.91,26.92,8,30.5,8h36c1.79,0,3.52,0.75,4.74,2.05l15.01,16.02 C87.38,27.28,88,28.85,88,30.5z"/><path fill="#d9eeff" d="M30,78.067V13.933h34.667L82,32.133v45.933H30z"/><path fill="#40396e" d="M65.533,15.667v13.867c0,0.958,0.776,1.733,1.733,1.733h13.867l-0.867-2.299l-13-13.433 L65.533,15.667z"/><rect width="3.636" height="34.834" x="26.329" y="44.149" fill="#96c362"/><rect width="10.943" height="7.204" x="19.057" y="32.622" fill="#f4665c"/><rect width="10.763" height="4.323" x="19.237" y="39.826" fill="#9aa2e6"/><rect width="3.636" height="35.04" x="18.329" y="44.148" fill="#407845"/><rect width="4.363" height="34.942" x="21.966" y="44.148" fill="#739f4d"/><path fill="#fedeb3" d="M21.965,82.27l0-3.901c0-1.194,0.976-2.161,2.182-2.161l0,0c1.205,0,2.182,0.967,2.182,2.161 l0,3.901c0,1.194-0.976,2.161-2.182,2.161l0,0C22.942,84.432,21.965,83.464,21.965,82.27z"/><path fill="#fedeb3" d="M26.328,78.343c0.001-0.995,0.814-1.801,1.818-1.801l0,0c1.004,0.001,1.818,0.807,1.818,1.801 l0,0.879l-3.636,2.888L26.328,78.343z"/><path fill="#fedeb3" d="M18.329,78.342c0.001-0.995,0.814-1.801,1.818-1.801l0,0c1.004,0.001,1.818,0.807,1.818,1.801v3.768 l-3.636-3.311L18.329,78.342z"/><polygon fill="#40396e" points="21.238,81.633 28,81.633 25.464,85.82 23.408,85.82"/><path fill="#f9b84f" d="M44.427,48.177L36.31,40.06H36V71h30.94v-0.31L44.427,48.177z M44.427,64.04v-5.411l5.411,5.411 H44.427z"/><path fill="#40396e" d="M40.91,67.87c-0.17,0.68-0.84,1.11-1.54,1.11H36v-3h3.46c0.41,0,0.79,0.17,1.06,0.44 C40.88,66.77,41.06,67.31,40.91,67.87z"/><path fill="#40396e" d="M38.96,61.48c0,0.83-0.67,1.5-1.5,1.5H36v-3h1.46c0.41,0,0.79,0.17,1.06,0.44 S38.96,61.07,38.96,61.48z"/><path fill="#40396e" d="M40.91,55.49c-0.17,0.68-0.84,1.11-1.54,1.11H36v-3h3.46c0.41,0,0.79,0.16,1.06,0.43 C40.88,54.39,41.06,54.92,40.91,55.49z"/><path fill="#40396e" d="M38.96,49.1c0,0.83-0.67,1.5-1.5,1.5H36v-3h1.46c0.41,0,0.79,0.17,1.06,0.44S38.96,48.68,38.96,49.1 z"/><path fill="#40396e" d="M82.59,29.47l-15-16C67.31,13.17,66.92,13,66.5,13h-36c-0.83,0-1.5,0.67-1.5,1.49l-0.06,16.53 c-0.2-0.03-0.4-0.05-0.61-0.05h-7.64c-2.03,0-3.68,1.64-3.68,3.66v42.86c0,0.3,0.09,0.6,0.26,0.85l6.18,9.01 c0.29,0.41,0.79,0.64,1.26,0.65c0.5-0.01,0.97-0.26,1.24-0.69L31.32,79H35h46.5c0.83,0,1.5-0.67,1.5-1.5v-47 C83,30.12,82.85,29.75,82.59,29.47z M80,76H30.5c-0.51,0-0.99,0.26-1.26,0.69l-4.59,7.1l-4.64-6.76v-42.4 c0-0.36,0.31-0.66,0.68-0.66h7.64c0.3,0,0.57,0.21,0.65,0.49c0.2,0.73,0.9,1.2,1.64,1.1c0.75-0.1,1.31-0.73,1.31-1.48L31.99,16 h33.86L80,31.09V76z"/></svg>