<svg xmlns="http://www.w3.org/2000/svg" xmlns:xlink="http://www.w3.org/1999/xlink" viewBox="0,0,256,256" width="100px" height="100px" fill-rule="nonzero"><g fill="none" fill-rule="nonzero" stroke="none" stroke-width="1" stroke-linecap="butt" stroke-linejoin="miter" stroke-miterlimit="10" stroke-dasharray="" stroke-dashoffset="0" font-family="none" font-weight="none" font-size="none" text-anchor="none" style="mix-blend-mode: normal"><g transform="translate(245.78784,-0.0048) rotate(90) scale(2.56,2.56)"><g id="Слой_2"><path d="M77.648,8.352c-1.511,-1.511 -3.52,-2.343 -5.657,-2.343c-2.137,0 -4.146,0.832 -5.657,2.343l-57.982,57.983c-3.119,3.119 -3.119,8.194 0,11.314c9.255,9.254 21.559,14.351 34.648,14.351c27.019,0 49,-21.981 49,-49c0,-13.088 -5.097,-25.393 -14.352,-34.648z" fill="#000000" opacity="0.35"></path><path d="M75.648,6.352c-1.511,-1.511 -3.52,-2.343 -5.657,-2.343c-2.137,0 -4.146,0.832 -5.657,2.343l-57.982,57.983c-3.119,3.119 -3.119,8.194 0,11.314c9.255,9.254 21.559,14.351 34.648,14.351c27.019,0 49,-21.981 49,-49c0,-13.088 -5.097,-25.393 -14.352,-34.648z" fill="#f2f2f2"></path><path d="M69.991,9.009c-0.768,0 -1.536,0.293 -2.121,0.879l-57.983,57.982c-1.172,1.172 -1.172,3.071 0,4.243c8.311,8.31 19.36,12.887 31.113,12.887c24.262,0 44,-19.738 44,-44c0,-11.753 -4.577,-22.802 -12.887,-31.113c-0.586,-0.585 -1.354,-0.878 -2.122,-0.878z" fill="#40396e"></path><path d="M12.009,69.991c7.419,7.42 17.669,12.009 28.991,12.009c22.644,0 41,-18.356 41,-41c0,-11.322 -4.589,-21.572 -12.009,-28.991z" fill="#407845"></path><path d="M41,76c19.33,0 35,-15.67 35,-35c0,-9.665 -3.918,-18.415 -10.251,-24.749l-49.498,49.498c6.334,6.333 15.084,10.251 24.749,10.251z" fill="#96c362"></path><path d="M41,72c17.121,0 31,-13.879 31,-31c0,-8.56 -3.47,-16.31 -9.08,-21.92l-43.84,43.84c5.61,5.61 13.36,9.08 21.92,9.08z" fill="#f4665c"></path><path d="M60.725,55.661c1.112,1.112 0.609,2.412 -0.504,3.525c-1.113,1.113 -2.412,1.616 -3.525,0.504c-1.113,-1.112 -1.511,-5.539 -1.511,-5.539c0,0 4.427,0.397 5.54,1.51z" fill="#40396e"></path><path d="M60.733,55.649c1.113,1.112 0.61,2.412 -0.502,3.525c-1.112,1.113 -2.412,1.617 -3.525,0.506c-1.113,-1.112 -1.514,-5.538 -1.514,-5.538c0,0 4.428,0.395 5.541,1.507z" fill="#40396e"></path><path d="M60.741,55.637c1.114,1.111 0.612,2.412 -0.499,3.525c-1.111,1.114 -2.411,1.619 -3.524,0.508c-1.114,-1.111 -1.517,-5.537 -1.517,-5.537c0,0 4.426,0.393 5.54,1.504z" fill="#40396e"></path><path d="M64.78,43.439c1.52,0.405 1.736,1.783 1.33,3.303c-0.405,1.52 -1.278,2.607 -2.798,2.202c-1.52,-0.405 -4.083,-4.037 -4.083,-4.037c0,0 4.031,-1.873 5.551,-1.468z" fill="#40396e"></path><path d="M62.18,30.856c1.519,-0.409 2.394,0.676 2.803,2.195c0.409,1.519 0.197,2.897 -1.322,3.306c-1.519,0.409 -5.554,-1.455 -5.554,-1.455c0,0 2.554,-3.637 4.073,-4.046z" fill="#40396e"></path><path d="M38.561,66.78c-0.405,1.52 -1.783,1.736 -3.303,1.33c-1.52,-0.405 -2.607,-1.278 -2.202,-2.798c0.405,-1.52 4.037,-4.083 4.037,-4.083c0,0 1.873,4.031 1.468,5.551z" fill="#40396e"></path><path d="M51.144,64.18c0.409,1.519 -0.676,2.394 -2.195,2.803c-1.519,0.409 -2.897,0.197 -3.306,-1.322c-0.409,-1.519 1.455,-5.554 1.455,-5.554c0,0 3.637,2.554 4.046,4.073z" fill="#40396e"></path></g></g></g></svg>