<svg xmlns="http://www.w3.org/2000/svg"  viewBox="0 0 100 100" width="100px" height="100px"><path d="M22.5,95c-3.6,0-6.5-2.9-6.5-6.5v-73c0-3.6,2.9-6.5,6.5-6.5h41c1.8,0,2.3,1.7,3.5,3l19.2,18	c1.1,1.2,1.8,2.8,1.8,4.5v54c0,3.6-2.9,6.5-6.5,6.5H22.5z" opacity=".35"/><path fill="#f2f2f2" d="M20.5,93c-3.6,0-6.5-2.9-6.5-6.5v-73C14,9.9,16.9,7,20.5,7h41c1.8,0,3.5,0.7,4.7,2l18,19	c1.1,1.2,1.8,2.8,1.8,4.5v54c0,3.6-2.9,6.5-6.5,6.5H20.5z"/><path fill="#bd7bc8" d="M20,87V13h40l20,21v53H20z"/><path fill="#40396e" d="M61,15v16c0,1.1,0.9,2,2,2h16l-1-2.7L63,14.8L61,15z"/><polygon fill="none" stroke="#40396e" stroke-linejoin="round" stroke-miterlimit="10" stroke-width="3" points="20.5,13.5 61.5,13.5 79.5,32.5 79.5,86.5 20.5,86.5"/><path fill="#fff" d="M31.1,61.3c-0.4,0-0.6-0.1-0.8-0.2s-0.4-0.4-0.5-0.8l-3.2-9.1c-0.1-0.4-0.1-0.8,0.1-1c0.2-0.3,0.5-0.4,1-0.4 c0.3,0,0.6,0.1,0.8,0.2c0.2,0.2,0.3,0.4,0.5,0.8l2.3,6.9l2.4-6.8c0.1-0.3,0.3-0.6,0.5-0.8c0.2-0.2,0.4-0.2,0.8-0.2 c0.3,0,0.5,0.1,0.7,0.2c0.2,0.2,0.3,0.4,0.5,0.8l2.4,7l2.4-7c0.1-0.3,0.3-0.6,0.4-0.7c0.2-0.2,0.5-0.2,0.8-0.2 c0.4,0,0.7,0.1,0.9,0.4c0.2,0.3,0.2,0.6,0.1,1l-3.3,9.1c-0.1,0.3-0.3,0.6-0.5,0.7s-0.5,0.2-0.8,0.2c-0.3,0-0.6-0.1-0.8-0.2 c-0.2-0.2-0.4-0.4-0.5-0.8l-2.3-6.6l-2.4,6.6c-0.1,0.3-0.3,0.6-0.5,0.7S31.5,61.3,31.1,61.3z"/><path fill="#fff" d="M46.2,61.2c-0.9,0-1.3-0.4-1.3-1.3v-8.7c0-0.9,0.4-1.3,1.3-1.3h5.6c0.7,0,1,0.3,1,1c0,0.7-0.3,1-1,1h-4.5v2.6 h4.1c0.7,0,1,0.3,1,1c0,0.7-0.3,1-1,1h-4.1v2.8h4.5c0.7,0,1,0.3,1,1c0,0.7-0.3,1-1,1H46.2z"/><path fill="#fff" d="M55.9,61.2c-0.9,0-1.3-0.4-1.3-1.3v-8.7c0-0.9,0.4-1.3,1.3-1.3h3.9c1.2,0,2.1,0.3,2.8,0.8 c0.7,0.5,1,1.2,1,2.1c0,0.6-0.1,1.1-0.4,1.5s-0.7,0.8-1.2,1c0.6,0.2,1.1,0.5,1.5,1s0.5,1,0.5,1.7c0,1-0.3,1.8-1,2.3 s-1.7,0.8-2.9,0.8H55.9z M56.9,54.5h2.4c1.2,0,1.8-0.5,1.8-1.4c0-0.9-0.6-1.4-1.8-1.4h-2.4V54.5z M56.9,59.3h2.6 c0.6,0,1.1-0.1,1.4-0.4c0.3-0.2,0.4-0.6,0.4-1.1c0-0.5-0.1-0.9-0.4-1.1c-0.3-0.2-0.8-0.4-1.4-0.4h-2.6V59.3z"/><path fill="#fff" d="M66.9,61.3c-0.4,0-0.7-0.1-0.9-0.3c-0.2-0.2-0.3-0.5-0.3-0.9v-8.9c0-0.8,0.4-1.3,1.3-1.3h3.9 c1.3,0,2.2,0.3,2.9,1c0.7,0.6,1,1.5,1,2.6c0,1.1-0.3,2-1,2.7s-1.7,1-2.9,1h-2.7V60c0,0.4-0.1,0.7-0.3,0.9S67.3,61.3,66.9,61.3z M68.2,55.2h2.3c1.3,0,2-0.6,2-1.7c0-1.1-0.7-1.7-2-1.7h-2.3V55.2z"/></svg>